<?xml version="1.0" encoding="UTF-8" standalone="no"?>
<svg
   xmlns:dc="http://purl.org/dc/elements/1.1/"
   xmlns:cc="http://creativecommons.org/ns#"
   xmlns:rdf="http://www.w3.org/1999/02/22-rdf-syntax-ns#"
   xmlns:svg="http://www.w3.org/2000/svg"
   xmlns="http://www.w3.org/2000/svg"
   xmlns:sodipodi="http://sodipodi.sourceforge.net/DTD/sodipodi-0.dtd"
   xmlns:inkscape="http://www.inkscape.org/namespaces/inkscape"
   width="16.221783mm"
   height="14.675982mm"
   viewBox="0 0 16.221783 14.675982"
   version="1.1"
   id="svg8"
   inkscape:version="0.92.4 (5da689c313, 2019-01-14)"
   sodipodi:docname="trouvailleLogo.svg"
   inkscape:export-filename="C:\Users\Stefan\Desktop\trouvailleLogo.png"
   inkscape:export-xdpi="96"
   inkscape:export-ydpi="96">
  <defs
     id="defs2" />
  <sodipodi:namedview
     id="base"
     pagecolor="#ffffff"
     bordercolor="#666666"
     borderopacity="1.0"
     inkscape:pageopacity="0.0"
     inkscape:pageshadow="2"
     inkscape:zoom="1.979899"
     inkscape:cx="-70.042014"
     inkscape:cy="-3.8031343"
     inkscape:document-units="mm"
     inkscape:current-layer="layer1"
     inkscape:document-rotation="0"
     showgrid="false"
     inkscape:window-width="1920"
     inkscape:window-height="1017"
     inkscape:window-x="-8"
     inkscape:window-y="-8"
     inkscape:window-maximized="1"
     fit-margin-top="0"
     fit-margin-left="0"
     fit-margin-right="0"
     fit-margin-bottom="0" />
  <metadata
     id="metadata5">
    <rdf:RDF>
      <cc:Work
         rdf:about="">
        <dc:format>image/svg+xml</dc:format>
        <dc:type
           rdf:resource="http://purl.org/dc/dcmitype/StillImage" />
        <dc:title></dc:title>
      </cc:Work>
    </rdf:RDF>
  </metadata>
  <g
     inkscape:label="Ebene 1"
     inkscape:groupmode="layer"
     id="layer1"
     style="display:inline"
     transform="translate(-156.03614,-128.05296)">
    <text
       xml:space="preserve"
       style="font-style:normal;font-weight:normal;font-size:19.6093998px;line-height:1.25;font-family:sans-serif;letter-spacing:0px;word-spacing:0px;fill:#000000;fill-opacity:1;stroke:none;stroke-width:0.741144;stroke-miterlimit:4;stroke-dasharray:none"
       x="44.355095"
       y="124.28"
       id="text3311-7"><tspan
         sodipodi:role="line"
         id="tspan3309-7"
         x="44.355095"
         y="124.28"
         style="font-style:normal;font-variant:normal;font-weight:normal;font-stretch:normal;font-family:'Bodoni MT';-inkscape-font-specification:'Bodoni MT';stroke-width:0.741144;stroke-miterlimit:4;stroke-dasharray:none"
         dy="0">trouvaille</tspan></text>
    <path
       style="fill:none;stroke:#000000;stroke-width:0.69999999;stroke-linecap:butt;stroke-linejoin:miter;stroke-miterlimit:4;stroke-dasharray:none;stroke-opacity:1"
       d="M 138.24407,125.82553 V 110.61199"
       id="path200"
       inkscape:connector-curvature="0" />
  </g>
  <g
     inkscape:groupmode="layer"
     id="layer4"
     inkscape:label="Pencil"
     style="display:inline"
     transform="translate(-156.03614,-128.05296)">
    <path
       style="fill:none;stroke:#000000;stroke-width:0.33432201;stroke-linecap:butt;stroke-linejoin:round;stroke-miterlimit:4;stroke-dasharray:none;stroke-opacity:1"
       d="m 156.78372,139.36047 -0.33935,2.62011 2.08596,-1.64029"
       id="path951"
       sodipodi:nodetypes="ccc"
       inkscape:connector-curvature="0" />
    <path
       style="fill:none;stroke:#000000;stroke-width:0.33432201;stroke-linecap:butt;stroke-linejoin:miter;stroke-miterlimit:4;stroke-dasharray:none;stroke-opacity:1"
       d="m 156.78372,139.36047 c 0,0 0.16157,0.006 0.44717,0.14887 0.29341,0.14677 0.17111,0.42553 0.32519,0.51405 0.15409,0.0885 0.32391,-0.12208 0.61796,0.0185 0.29405,0.14057 0.35629,0.29836 0.35629,0.29836"
       id="path953"
       sodipodi:nodetypes="cszzc"
       inkscape:connector-curvature="0" />
    <path
       style="fill:none;stroke:#000000;stroke-width:0.33432201;stroke-linecap:butt;stroke-linejoin:miter;stroke-miterlimit:4;stroke-dasharray:none;stroke-opacity:1"
       d="m 156.62931,140.91885 0.6625,0.38708"
       id="path955"
       sodipodi:nodetypes="cc"
       inkscape:connector-curvature="0" />
    <path
       style="fill:none;stroke:#000000;stroke-width:0.33432201;stroke-linecap:round;stroke-linejoin:miter;stroke-miterlimit:4;stroke-dasharray:none;stroke-opacity:1"
       d="m 156.78372,139.36047 c 0,0 1.43357,-2.44969 2.63715,-4.55261 0.29846,-0.52147 0.28748,-0.49008 0.78033,-1.3633 m -0.011,3.99616 c -1.59469,2.80784 -1.65992,2.8996 -1.65992,2.8996"
       id="path957"
       sodipodi:nodetypes="csccc"
       inkscape:connector-curvature="0" />
    <path
       style="fill:none;stroke:#000000;stroke-width:0.33432201;stroke-linecap:butt;stroke-linejoin:miter;stroke-miterlimit:4;stroke-dasharray:none;stroke-opacity:1"
       d="m 159.60836,134.24367 0.64787,0.37386"
       id="path959"
       sodipodi:nodetypes="cc"
       inkscape:connector-curvature="0" />
    <path
       style="fill:none;stroke:#000000;stroke-width:0.33432201;stroke-linecap:butt;stroke-linejoin:miter;stroke-miterlimit:4;stroke-dasharray:none;stroke-opacity:1"
       d="m 160.02707,133.60548 0.31231,0.17028"
       id="path961"
       sodipodi:nodetypes="cc"
       inkscape:connector-curvature="0" />
    <path
       style="fill:none;stroke:#000000;stroke-width:0.33432201;stroke-linecap:round;stroke-linejoin:miter;stroke-miterlimit:4;stroke-dasharray:none;stroke-opacity:1"
       d="m 160.0317,135.61648 0.23471,-0.47083"
       id="path963"
       sodipodi:nodetypes="cc"
       inkscape:connector-curvature="0" />
    <path
       style="fill:none;stroke:#000000;stroke-width:0.33432201;stroke-linecap:round;stroke-linejoin:miter;stroke-miterlimit:4;stroke-dasharray:none;stroke-opacity:1"
       d="m 157.66981,139.82197 1.96608,-3.47016"
       id="path963-6"
       sodipodi:nodetypes="cc"
       inkscape:connector-curvature="0" />
  </g>
  <g
     inkscape:groupmode="layer"
     id="layer5"
     inkscape:label="Brush"
     style="display:inline"
     transform="translate(-156.03614,-128.05296)">
    <path
       style="fill:none;stroke:#010101;stroke-width:0.381524;stroke-linecap:butt;stroke-linejoin:round;stroke-miterlimit:4;stroke-dasharray:none;stroke-opacity:1"
       d="m 159.95671,130.93671 c 0,0 -0.4062,0.22202 -0.62698,0.28495 -0.22999,0.0654 -0.4733,0.11346 -0.71144,0.0919 -0.23631,-0.0214 -0.47305,-0.0975 -0.67807,-0.2166 -0.21337,-0.12461 -0.4089,-0.29664 -0.54368,-0.50368 -0.12287,-0.18881 -0.18061,-0.41735 -0.21941,-0.63928 -0.0343,-0.19332 0.007,-0.3932 -0.008,-0.58895 -0.009,-0.11285 -0.0124,-0.22876 -0.0481,-0.3362 -0.0472,-0.14139 -0.10778,-0.28859 -0.21461,-0.39271 -0.0916,-0.0894 -0.21923,-0.13727 -0.34137,-0.17531 -0.10847,-0.0344 -0.33825,-0.0442 -0.33825,-0.0442 0,0 0.55954,-0.15617 0.84728,-0.17024 0.26425,-0.0129 0.53137,0.0225 0.78969,0.0795 0.21777,0.0481 0.43364,0.1175 0.6321,0.21924 0.23197,0.11892 0.44984,0.27137 0.63925,0.45045 0.18137,0.17151 0.33615,0.3733 0.46504,0.58712 0.12133,0.20121 0.22405,0.41789 0.28416,0.64503 0.0609,0.22963 0.0727,0.70895 0.0727,0.70895 z"
       id="path987"
       sodipodi:nodetypes="caaaaaaaaacaaaaaacc"
       inkscape:connector-curvature="0" />
    <path
       style="fill:none;stroke:#010101;stroke-width:0.27349499;stroke-linecap:round;stroke-linejoin:miter;stroke-miterlimit:4;stroke-dasharray:none;stroke-opacity:1"
       d="m 158.53278,130.63466 c 0,0 -0.14215,-0.043 -0.20883,-0.0745 -0.10298,-0.0495 -0.20907,-0.10081 -0.29195,-0.17933 -0.0648,-0.0617 -0.11104,-0.14171 -0.15244,-0.22099 -0.0503,-0.0962 -0.11434,-0.30483 -0.11434,-0.30483"
       id="path989"
       sodipodi:nodetypes="caaac"
       inkscape:connector-curvature="0" />
    <path
       style="fill:none;stroke:#010101;stroke-width:0.478614;stroke-linecap:round;stroke-linejoin:miter;stroke-miterlimit:4;stroke-dasharray:none;stroke-opacity:1"
       d="m 159.79528,131.11173 c 0.21151,0.2626 0.35831,0.49581 0.57675,0.74292 0.21844,0.2471 0.69731,0.68994 0.96029,0.90982"
       id="path991"
       sodipodi:nodetypes="czc"
       inkscape:connector-curvature="0" />
    <path
       style="fill:none;stroke:#010101;stroke-width:0.51037198;stroke-linecap:round;stroke-linejoin:miter;stroke-miterlimit:4;stroke-dasharray:none;stroke-opacity:1"
       d="m 160.05113,130.91416 c 0,0 0.7367,0.14562 1.11754,0.24581 0.38093,0.0998 0.80085,0.22236 1.1653,0.35574 0.36452,0.13324 0.68529,0.28048 1.02044,0.43726 0.33512,0.15693 0.64771,0.30765 0.98925,0.50342 0.34155,0.19576 0.86056,0.57227 1.18847,0.81403"
       id="path993"
       sodipodi:nodetypes="czzzzc"
       inkscape:connector-curvature="0" />
    <path
       style="fill:none;stroke:#010101;stroke-width:0.478614;stroke-linecap:butt;stroke-linejoin:miter;stroke-miterlimit:4;stroke-dasharray:none;stroke-opacity:1"
       d="m 161.55535,132.87532 c 0,0 0.32091,-0.29704 0.44032,-0.51619 0.11936,-0.21914 0.23528,-0.78429 0.23528,-0.78429"
       id="path995"
       sodipodi:nodetypes="czc"
       inkscape:connector-curvature="0" />
  </g>
  <g
     inkscape:groupmode="layer"
     id="layer2"
     inkscape:label="Bucket"
     style="display:inline"
     transform="translate(-156.03614,-128.05296)">
    <path
       style="fill:none;fill-opacity:1;stroke:#000000;stroke-width:0.48424101;stroke-linecap:butt;stroke-linejoin:round;stroke-miterlimit:4;stroke-dasharray:none;stroke-opacity:1"
       d="m 160.20338,131.74004 c 0.0316,-1.12631 3.09094,-1.59099 4.76091,-1.59467 1.66998,-0.003 4.73174,0.41608 4.73781,1.59467 0.003,0.60257 -0.81572,1.01956 -1.84068,1.28238 -0.97975,0.25122 -2.14787,0.36157 -2.96646,0.3585 -1.67494,-0.006 -4.7232,-0.51458 -4.69158,-1.64088 z"
       id="path3336-5"
       sodipodi:nodetypes="zzsssz"
       inkscape:connector-curvature="0" />
    <path
       style="fill:none;stroke:#000000;stroke-width:0.47716001;stroke-linecap:butt;stroke-linejoin:miter;stroke-miterlimit:4;stroke-dasharray:none;stroke-opacity:1"
       d="m 169.67899,131.87887 -0.0231,9.05926"
       id="path3338-8"
       sodipodi:nodetypes="cc"
       inkscape:connector-curvature="0" />
    <path
       style="fill:none;stroke:#000000;stroke-width:0.47932401;stroke-linecap:butt;stroke-linejoin:miter;stroke-miterlimit:4;stroke-dasharray:none;stroke-opacity:1"
       d="m 160.20338,131.74004 v 8.96714"
       id="path3340-2"
       sodipodi:nodetypes="cc"
       inkscape:connector-curvature="0" />
    <path
       style="fill:none;stroke:#000000;stroke-width:0.48424101;stroke-linecap:round;stroke-linejoin:miter;stroke-miterlimit:4;stroke-dasharray:none;stroke-opacity:1"
       d="m 160.20338,140.70718 c 0,0 0.04,1.79333 4.7147,1.77956 4.67468,-0.0138 4.73781,-1.54861 4.73781,-1.54861"
       id="path3342-0"
       sodipodi:nodetypes="czc"
       inkscape:connector-curvature="0" />
    <path
       style="fill:none;stroke:#000000;stroke-width:0.48424101;stroke-linecap:round;stroke-linejoin:miter;stroke-miterlimit:4;stroke-dasharray:none;stroke-opacity:1"
       d="m 163.97051,135.11427 c 0,0 1.02181,1.28061 3.07379,2.58845 2.05198,1.30785 2.61158,1.31734 2.61158,1.31734"
       id="path3344-9"
       sodipodi:nodetypes="czc"
       inkscape:connector-curvature="0" />
    <path
       style="fill:none;stroke:#000000;stroke-width:0.48424101;stroke-linecap:butt;stroke-linejoin:miter;stroke-miterlimit:4;stroke-dasharray:none;stroke-opacity:1"
       d="m 169.65588,139.02006 c 0,0 0.7206,0.21308 1.08622,0.16178 0.36563,-0.0513 0.65676,-0.0819 0.90134,-0.36978 0.24459,-0.28784 0.39453,-0.69264 0.36978,-1.22489 -0.0248,-0.53225 -0.40677,-1.33303 -0.67023,-1.89513 -0.26345,-0.56209 -0.55313,-1.04939 -0.832,-1.456 -0.27887,-0.40661 -0.80889,-0.99378 -0.80889,-0.99378"
       id="path3346-7"
       sodipodi:nodetypes="czzzzzc"
       inkscape:connector-curvature="0" />
    <path
       style="fill:none;stroke:#000000;stroke-width:0.48424101;stroke-linecap:butt;stroke-linejoin:miter;stroke-miterlimit:4;stroke-dasharray:none;stroke-opacity:1"
       d="m 163.57646,133.24763 c 0,0 -0.36148,0.25364 -0.36045,0.42277 0.005,0.79877 -0.005,1.41065 -0.007,2.24294 -4.3e-4,0.1638 -0.005,0.53858 -0.34807,0.54138 -0.31865,0.003 -0.3455,-0.3712 -0.34667,-0.53461 -0.003,-0.46103 -0.003,-0.46179 0,-0.84365 10e-4,-0.15807 0.006,-0.48613 -0.32355,-0.49375 -0.35719,-0.008 -0.33754,0.32729 -0.3385,0.48021 -0.007,1.07289 -0.0259,1.66142 -0.0313,3.14825 -6.5e-4,0.18181 -0.25746,0.33117 -0.43911,0.32355 -0.16364,-0.007 -0.36402,-0.15987 -0.36978,-0.32355 -0.0731,-2.07748 6.3e-4,-3.28145 0,-5.06135 -1.1e-4,-0.32341 -0.23532,-0.62004 -0.23532,-0.62004"
       id="path3348-3"
       sodipodi:nodetypes="csssssssssssc"
       inkscape:connector-curvature="0" />
    <path
       style="fill:none;stroke:#000000;stroke-width:0.27670899;stroke-linecap:round;stroke-linejoin:miter;stroke-miterlimit:4;stroke-dasharray:none;stroke-opacity:1"
       d="m 168.22298,141.3543 c 0,0 0.45115,-0.14445 0.69334,-0.27734 0.24218,-0.13289 0.73956,-0.53156 0.73956,-0.53156"
       id="path3350-8"
       sodipodi:nodetypes="czc"
       inkscape:connector-curvature="0" />
    <path
       style="fill:none;stroke:#000000;stroke-width:0.27670899;stroke-linecap:round;stroke-linejoin:miter;stroke-miterlimit:4;stroke-dasharray:none;stroke-opacity:1"
       d="m 165.26192,141.7886 c 0,0 -0.78244,0.0215 -1.17206,-0.007 -0.53496,-0.0397 -1.07467,-0.09 -1.59312,-0.22774 -0.44878,-0.11923 -0.8954,-0.2768 -1.29502,-0.51329 -0.37029,-0.21913 -0.99444,-0.82301 -0.99444,-0.82301"
       id="path3352-7"
       sodipodi:nodetypes="caaac"
       inkscape:connector-curvature="0" />
    <path
       style="fill:none;stroke:#000000;stroke-width:0.27670899;stroke-linecap:butt;stroke-linejoin:miter;stroke-miterlimit:4;stroke-dasharray:none;stroke-opacity:1"
       d="m 161.59006,132.84937 c 0,0 1.12376,-0.61501 3.3049,-0.57777 2.62783,0.0448 3.39735,0.57777 3.39735,0.57777"
       id="path3354-7"
       sodipodi:nodetypes="csc"
       inkscape:connector-curvature="0" />
  </g>
</svg>
